Recursive-Sans Linear SemiBold.ufo
<glyph name="quotesingle" format="2">
  <advance width="350.0"/>
  <unicode hex="0027"/>
  <outline>
    <contour>
      <point x="229.4245283018868" y="440.8018867924528" type="curve"/>
      <point x="248.62264150943395" y="737.0" type="line" smooth="yes"/>
      <point x="249.33018867924528" y="746.0"/>
      <point x="245.20754716981133" y="750.0"/>
      <point x="237.74528301886792" y="750.0" type="curve" smooth="yes"/>
      <point x="199.32075471698113" y="750.0"/>
      <point x="150.04716981132074" y="750.0"/>
      <point x="100.33018867924528" y="750.0" type="curve"/>
      <point x="102.74528301886792" y="714.877358490566"/>
      <point x="104.74528301886792" y="683.0"/>
      <point x="107.16037735849056" y="648.0" type="curve" smooth="yes"/>
      <point x="119.82075471698113" y="451.8018867924528" type="line" smooth="yes"/>
      <point x="120.52830188679246" y="444.8018867924528"/>
      <point x="125.23584905660377" y="440.8018867924528"/>
      <point x="131.52830188679246" y="440.8018867924528" type="curve" smooth="yes"/>
      <point x="163.75471698113208" y="440.8018867924528"/>
      <point x="195.4433962264151" y="440.8018867924528"/>
    </contour>
  </outline>
</glyph>
<glyph name="I" format="2">
  <advance width="500.0"/>
  <unicode hex="0049"/>
  <anchor x="250.0" y="711.0" name="top"/>
  <anchor x="250.0" y="-1.0" name="bottom"/>
  <anchor x="428.07547169811323" y="0.0" name="ogonek"/>
  <anchor x="250.29245283018867" y="730.0" name="hook"/>
  <outline>
    <contour>
      <point x="313.91509433962267" y="65.99056603773585" type="line"/>
      <point x="313.91509433962267" y="218.24528301886792"/>
      <point x="313.91509433962267" y="373.3301886792453"/>
      <point x="313.91509433962267" y="526.2924528301887" type="curve"/>
      <point x="313.91509433962267" y="548.2924528301887"/>
      <point x="313.91509433962267" y="576.2452830188679"/>
      <point x="313.91509433962267" y="598.2452830188679" type="curve" smooth="yes"/>
      <point x="318.5" y="634.0094339622642" type="line"/>
      <point x="186.08490566037736" y="634.0094339622642" type="line"/>
      <point x="186.08490566037736" y="482.50943396226415"/>
      <point x="186.08490566037736" y="328.8867924528302"/>
      <point x="186.08490566037736" y="178.38679245283018" type="curve" smooth="yes"/>
      <point x="186.08490566037736" y="155.33962264150944"/>
      <point x="186.08490566037736" y="124.50943396226414"/>
      <point x="186.08490566037736" y="101.75471698113208" type="curve"/>
      <point x="182.37735849056605" y="65.99056603773585" type="line"/>
    </contour>
    <contour>
      <point x="427.07547169811323" y="0.0" type="line"/>
      <point x="427.07547169811323" y="34.93396226415094"/>
      <point x="427.07547169811323" y="63.62264150943396"/>
      <point x="427.07547169811323" y="98.26415094339623" type="curve" smooth="yes"/>
      <point x="427.07547169811323" y="104.26415094339623"/>
      <point x="422.07547169811323" y="109.26415094339623"/>
      <point x="416.07547169811323" y="109.26415094339623" type="curve" smooth="yes"/>
      <point x="72.9245283018868" y="109.26415094339623" type="line"/>
      <point x="72.9245283018868" y="74.33018867924528"/>
      <point x="72.9245283018868" y="45.93396226415094"/>
      <point x="72.9245283018868" y="11.0" type="curve"/>
      <point x="72.9245283018868" y="5.0"/>
      <point x="77.63207547169812" y="0.0"/>
      <point x="83.9245283018868" y="0.0" type="curve" smooth="yes"/>
    </contour>
    <contour>
      <point x="72.9245283018868" y="700.0" type="line"/>
      <point x="72.9245283018868" y="665.066037735849"/>
      <point x="72.9245283018868" y="636.6698113207547"/>
      <point x="72.9245283018868" y="601.7358490566038" type="curve"/>
      <point x="72.9245283018868" y="595.7358490566038"/>
      <point x="77.63207547169812" y="590.7358490566038"/>
      <point x="83.9245283018868" y="590.7358490566038" type="curve" smooth="yes"/>
      <point x="427.07547169811323" y="590.7358490566038" type="line"/>
      <point x="427.07547169811323" y="625.6698113207547"/>
      <point x="427.07547169811323" y="654.066037735849"/>
      <point x="427.07547169811323" y="689.0" type="curve" smooth="yes"/>
      <point x="427.07547169811323" y="695.0"/>
      <point x="422.07547169811323" y="700.0"/>
      <point x="416.07547169811323" y="700.0" type="curve" smooth="yes"/>
    </contour>
  </outline>
</glyph>
<glyph name="N" format="2">
  <advance width="650.0"/>
  <unicode hex="004E"/>
  <anchor x="350.0" y="711.0" name="top"/>
  <anchor x="350.0" y="-1.0" name="bottom"/>
  <outline>
    <contour>
      <point x="179.52830188679246" y="0.0" type="curve"/>
      <point x="179.52830188679246" y="53.70754716981132"/>
      <point x="179.23584905660377" y="111.33962264150944"/>
      <point x="179.52830188679246" y="162.12264150943398" type="curve"/>
      <point x="179.52830188679246" y="256.7358490566038"/>
      <point x="176.69811320754718" y="384.8679245283019"/>
      <point x="154.71698113207546" y="545.566037735849" type="curve"/>
      <point x="137.47169811320754" y="526.7924528301887" type="line"/>
      <point x="202.8679245283019" y="526.7924528301887" type="line"/>
      <point x="159.66981132075472" y="561.5471698113207" type="line"/>
      <point x="247.12264150943398" y="385.3207547169811"/>
      <point x="325.54716981132077" y="233.10377358490567"/>
      <point x="455.60377358490564" y="7.7075471698113205" type="curve" smooth="yes"/>
      <point x="459.311320754717" y="1.2924528301886793"/>
      <point x="462.311320754717" y="0.0"/>
      <point x="470.311320754717" y="0.0" type="curve" smooth="yes"/>
      <point x="503.04716981132077" y="0.0"/>
      <point x="555.6603773584906" y="0.0"/>
      <point x="591.2264150943396" y="0.0" type="curve"/>
      <point x="591.2264150943396" y="39.72641509433963"/>
      <point x="591.2264150943396" y="80.16037735849056"/>
      <point x="591.2264150943396" y="119.88679245283019" type="curve"/>
      <point x="591.2264150943396" y="309.16037735849056"/>
      <point x="591.2264150943396" y="499.72641509433964"/>
      <point x="591.2264150943396" y="689.0" type="curve"/>
      <point x="591.2264150943396" y="695.0"/>
      <point x="586.2264150943396" y="700.0"/>
      <point x="580.2264150943396" y="700.0" type="curve"/>
      <point x="543.877358490566" y="700.0"/>
      <point x="506.8207547169811" y="700.0"/>
      <point x="470.47169811320754" y="700.0" type="curve"/>
      <point x="470.47169811320754" y="649.5377358490566"/>
      <point x="470.47169811320754" y="599.7830188679245"/>
      <point x="470.47169811320754" y="558.5188679245283" type="curve"/>
      <point x="470.47169811320754" y="437.6792452830189"/>
      <point x="474.83962264150944" y="324.60377358490564"/>
      <point x="498.8207547169811" y="172.75471698113208" type="curve"/>
      <point x="518.066037735849" y="187.14150943396226" type="line"/>
      <point x="452.16037735849056" y="187.14150943396226" type="line"/>
      <point x="491.8679245283019" y="158.50943396226415" type="line"/>
      <point x="405.29245283018867" y="333.02830188679246"/>
      <point x="314.92452830188677" y="502.7641509433962"/>
      <point x="214.5" y="690.0" type="curve" smooth="yes"/>
      <point x="209.79245283018867" y="699.4150943396227"/>
      <point x="208.62264150943395" y="700.0"/>
      <point x="197.79245283018867" y="700.0" type="curve" smooth="yes"/>
      <point x="159.5188679245283" y="700.0"/>
      <point x="97.04716981132076" y="700.0"/>
      <point x="58.77358490566038" y="700.0" type="curve"/>
      <point x="58.77358490566038" y="662.9056603773585"/>
      <point x="58.77358490566038" y="625.3962264150944"/>
      <point x="58.77358490566038" y="588.3018867924528" type="curve"/>
      <point x="58.77358490566038" y="396.10377358490564"/>
      <point x="58.77358490566038" y="203.19811320754718"/>
      <point x="58.77358490566038" y="11.0" type="curve"/>
      <point x="58.77358490566038" y="5.0"/>
      <point x="63.77358490566038" y="0.0"/>
      <point x="69.77358490566039" y="0.0" type="curve"/>
      <point x="106.12264150943396" y="0.0"/>
      <point x="143.17924528301887" y="0.0"/>
    </contour>
  </outline>
</glyph>
<glyph name="X" format="2">
  <advance width="650.0"/>
  <unicode hex="0058"/>
  <outline>
    <contour>
      <point x="497.58490566037733" y="0.0" type="curve" smooth="yes"/>
      <point x="538.3490566037735" y="0.0"/>
      <point x="590.7264150943396" y="0.0"/>
      <point x="632.1981132075472" y="0.0" type="curve"/>
      <point x="550.1509433962265" y="124.78301886792453"/>
      <point x="463.1792452830189" y="256.7830188679245"/>
      <point x="382.7169811320755" y="379.811320754717" type="curve"/>
      <point x="344.4433962264151" y="415.5943396226415" type="line"/>
      <point x="289.3018867924528" y="503.3490566037736"/>
      <point x="230.52830188679246" y="601.1509433962265"/>
      <point x="175.6320754716981" y="688.4150943396227" type="curve" smooth="yes"/>
      <point x="171.33962264150944" y="695.4150943396227"/>
      <point x="166.46226415094338" y="700.0"/>
      <point x="156.75471698113208" y="700.0" type="curve" smooth="yes"/>
      <point x="116.40566037735849" y="700.0"/>
      <point x="67.27358490566037" y="700.0"/>
      <point x="24.09433962264151" y="700.0" type="curve"/>
      <point x="101.18867924528303" y="576.2169811320755"/>
      <point x="176.45283018867926" y="456.8018867924528"/>
      <point x="252.62264150943395" y="333.89622641509436" type="curve"/>
      <point x="308.12264150943395" y="280.64150943396226" type="line"/>
      <point x="361.89622641509436" y="192.83962264150944"/>
      <point x="421.47169811320754" y="100.89622641509433"/>
      <point x="479.95283018867923" y="10.169811320754718" type="curve" smooth="yes"/>
      <point x="484.2452830188679" y="3.8773584905660377"/>
      <point x="490.41509433962267" y="0.0"/>
    </contour>
    <contour>
      <point x="604.3207547169811" y="700.0" type="curve"/>
      <point x="565.1415094339623" y="700.0"/>
      <point x="525.622641509434" y="700.0"/>
      <point x="486.4433962264151" y="700.0" type="curve"/>
      <point x="391.8018867924528" y="545.6509433962265"/>
      <point x="369.14150943396226" y="506.62264150943395"/>
      <point x="342.70754716981133" y="450.9433962264151" type="curve"/>
      <point x="298.4339622641509" y="450.9433962264151" type="line"/>
      <point x="382.57547169811323" y="318.58490566037733" type="line"/>
      <point x="457.37735849056605" y="437.29245283018867"/>
      <point x="575.1415094339623" y="625.5566037735849"/>
      <point x="613.3207547169811" y="681.0" type="curve"/>
      <point x="619.3207547169811" y="690.7075471698113"/>
      <point x="614.9056603773585" y="700.0"/>
    </contour>
    <contour>
      <point x="36.801886792452834" y="0.0" type="curve" smooth="yes"/>
      <point x="75.68867924528303" y="0.0"/>
      <point x="117.5754716981132" y="0.0"/>
      <point x="156.46226415094338" y="0.0" type="curve"/>
      <point x="247.76415094339623" y="139.54716981132077"/>
      <point x="272.39622641509436" y="181.54716981132077"/>
      <point x="306.12264150943395" y="251.68867924528303" type="curve"/>
      <point x="355.41509433962267" y="251.68867924528303" type="line"/>
      <point x="264.45283018867923" y="379.3679245283019" type="line"/>
      <point x="186.23584905660377" y="258.8301886792453"/>
      <point x="64.34905660377359" y="71.81132075471699"/>
      <point x="28.50943396226415" y="19.0" type="curve"/>
      <point x="22.50943396226415" y="9.29245283018868"/>
      <point x="27.924528301886795" y="0.0"/>
    </contour>
  </outline>
</glyph>
<glyph name="c" format="2">
  <advance width="500.0"/>
  <unicode hex="0063"/>
  <anchor x="284.66037735849056" y="546.9056603773585" name="top"/>
  <anchor x="284.66037735849056" y="-1.0" name="bottom"/>
  <outline>
    <contour>
      <point x="309.3207547169811" y="547.3207547169811" type="curve" smooth="yes"/>
      <point x="163.38679245283018" y="547.3207547169811"/>
      <point x="60.84905660377359" y="452.5566037735849"/>
      <point x="60.84905660377359" y="303.6320754716981" type="curve" smooth="yes"/>
      <point x="60.84905660377359" y="225.93396226415095" type="line" smooth="yes"/>
      <point x="60.84905660377359" y="74.65781578509434"/>
      <point x="153.2835532178302" y="-11.415094339622641"/>
      <point x="309.02830188679246" y="-11.415094339622641" type="curve" smooth="yes"/>
      <point x="386.5377358490566" y="-11.415094339622641"/>
      <point x="432.1981132075472" y="5.216981132075472"/>
      <point x="444.95283018867923" y="17.971698113207548" type="curve" smooth="yes"/>
      <point x="446.95283018867923" y="19.971698113207548"/>
      <point x="447.95283018867923" y="22.971698113207548"/>
      <point x="447.95283018867923" y="25.971698113207548" type="curve" smooth="yes"/>
      <point x="447.95283018867923" y="59.90566037735849"/>
      <point x="447.95283018867923" y="93.54716981132074"/>
      <point x="447.95283018867923" y="127.48113207547169" type="curve"/>
      <point x="430.29245283018867" y="127.48113207547169" type="line"/>
      <point x="395.8018867924528" y="111.72641509433961"/>
      <point x="357.8018867924528" y="102.80188679245282"/>
      <point x="308.6132075471698" y="102.80188679245282" type="curve" smooth="yes"/>
      <point x="270.00943396226415" y="102.80188679245282"/>
      <point x="240.5754716981132" y="112.14150943396226"/>
      <point x="220.06603773584905" y="132.23584905660377" type="curve" smooth="yes"/>
      <point x="197.0188679245283" y="153.16037735849056"/>
      <point x="185.14150943396226" y="186.37735849056605"/>
      <point x="185.14150943396226" y="231.88679245283018" type="curve" smooth="yes"/>
      <point x="185.14150943396226" y="300.75471698113205" type="line" smooth="yes"/>
      <point x="185.14150943396226" y="392.16037735849056"/>
      <point x="232.94339622641508" y="433.10377358490564"/>
      <point x="308.6132075471698" y="433.10377358490564" type="curve" smooth="yes"/>
      <point x="357.50943396226415" y="433.10377358490564"/>
      <point x="396.0943396226415" y="422.1320754716981"/>
      <point x="430.29245283018867" y="406.9622641509434" type="curve"/>
      <point x="447.95283018867923" y="406.9622641509434" type="line"/>
      <point x="447.95283018867923" y="440.60377358490564"/>
      <point x="447.95283018867923" y="474.24528301886795"/>
      <point x="447.95283018867923" y="507.8867924528302" type="curve" smooth="yes"/>
      <point x="447.95283018867923" y="511.7641509433962"/>
      <point x="447.24528301886795" y="514.4716981132076"/>
      <point x="444.3679245283019" y="517.3490566037735" type="curve" smooth="yes"/>
      <point x="432.49056603773585" y="529.2264150943396"/>
      <point x="384.49056603773585" y="547.3207547169811"/>
    </contour>
  </outline>
</glyph>
<glyph name="h" format="2">
  <advance width="600.0"/>
  <unicode hex="0068"/>
  <anchor x="140.58490566037736" y="730.0" name="top"/>
  <anchor x="304.58490566037733" y="0.0" name="bottom"/>
  <outline>
    <contour>
      <point x="92.69811320754718" y="0.0" type="curve" smooth="yes"/>
      <point x="131.87735849056602" y="0.0"/>
      <point x="163.27358490566039" y="0.0"/>
      <point x="202.45283018867923" y="0.0" type="curve"/>
      <point x="202.45283018867923" y="245.70754716981133"/>
      <point x="202.45283018867923" y="493.29245283018867"/>
      <point x="202.45283018867923" y="739.0" type="curve" smooth="yes"/>
      <point x="202.45283018867923" y="746.0"/>
      <point x="198.45283018867923" y="750.0"/>
      <point x="191.45283018867923" y="750.0" type="curve"/>
      <point x="155.81132075471697" y="750.0"/>
      <point x="124.41509433962264" y="750.0"/>
      <point x="81.69811320754718" y="750.0" type="curve"/>
      <point x="81.69811320754718" y="725.5094339622641"/>
      <point x="81.69811320754718" y="690.9245283018868"/>
      <point x="81.69811320754718" y="651.4150943396227" type="curve" smooth="yes"/>
      <point x="81.69811320754718" y="438.70754716981133"/>
      <point x="81.69811320754718" y="223.70754716981133"/>
      <point x="81.69811320754718" y="11.0" type="curve" smooth="yes"/>
      <point x="81.69811320754718" y="4.0"/>
      <point x="85.69811320754718" y="0.0"/>
    </contour>
    <contour>
      <point x="186.62264150943395" y="338.2358490566038" type="line"/>
      <point x="235.02830188679246" y="400.47169811320754"/>
      <point x="298.27358490566036" y="430.9811320754717"/>
      <point x="347.41509433962267" y="430.9811320754717" type="curve" smooth="yes"/>
      <point x="386.89622641509436" y="430.9811320754717"/>
      <point x="406.08490566037733" y="411.1320754716981"/>
      <point x="406.08490566037733" y="368.8490566037736" type="curve" smooth="yes"/>
      <point x="406.08490566037733" y="249.80188679245282"/>
      <point x="406.08490566037733" y="130.04716981132074"/>
      <point x="406.08490566037733" y="11.0" type="curve" smooth="yes"/>
      <point x="406.08490566037733" y="4.0"/>
      <point x="410.08490566037733" y="0.0"/>
      <point x="417.08490566037733" y="0.0" type="curve" smooth="yes"/>
      <point x="456.2641509433962" y="0.0"/>
      <point x="487.66037735849056" y="0.0"/>
      <point x="526.8396226415094" y="0.0" type="curve"/>
      <point x="526.8396226415094" y="33.58490566037736"/>
      <point x="526.8396226415094" y="67.16981132075472"/>
      <point x="526.8396226415094" y="101.04716981132076" type="curve" smooth="yes"/>
      <point x="526.8396226415094" y="199.58490566037736"/>
      <point x="526.8396226415094" y="297.0"/>
      <point x="526.8396226415094" y="393.70754716981133" type="curve" smooth="yes"/>
      <point x="526.8396226415094" y="486.85849056603774"/>
      <point x="473.47169811320754" y="547.3207547169811"/>
      <point x="385.7169811320755" y="547.3207547169811" type="curve"/>
      <point x="317.08490566037733" y="547.3207547169811"/>
      <point x="261.5" y="507.3207547169811"/>
      <point x="220.1132075471698" y="448.4433962264151" type="curve"/>
      <point x="186.62264150943395" y="448.4433962264151" type="line"/>
    </contour>
  </outline>
</glyph>
<glyph name="m" format="2">
  <advance width="850.0"/>
  <unicode hex="006D"/>
  <anchor x="424.75471698113205" y="0.0" name="bottom"/>
  <outline>
    <contour>
      <point x="768.3018867924528" y="0.0" type="curve"/>
      <point x="768.3018867924528" y="33.0"/>
      <point x="768.3018867924528" y="66.70754716981132"/>
      <point x="768.3018867924528" y="99.70754716981132" type="curve" smooth="yes"/>
      <point x="768.3018867924528" y="216.24528301886792"/>
      <point x="768.3018867924528" y="332.49056603773585"/>
      <point x="768.3018867924528" y="409.3207547169811" type="curve" smooth="yes"/>
      <point x="768.3018867924528" y="502.7830188679245"/>
      <point x="708.5943396226415" y="547.3207547169811"/>
      <point x="642.6698113207547" y="547.3207547169811" type="curve" smooth="yes"/>
      <point x="581.3018867924528" y="547.3207547169811"/>
      <point x="539.5471698113207" y="517.1981132075472"/>
      <point x="505.8207547169811" y="457.85849056603774" type="curve"/>
      <point x="459.00943396226415" y="457.85849056603774" type="line"/>
      <point x="476.16037735849056" y="326.99056603773585" type="line"/>
      <point x="509.7641509433962" y="394.3018867924528"/>
      <point x="549.9528301886793" y="428.85849056603774"/>
      <point x="591.2641509433962" y="428.85849056603774" type="curve" smooth="yes"/>
      <point x="624.6698113207547" y="428.85849056603774"/>
      <point x="640.4716981132076" y="411.9622641509434"/>
      <point x="640.4716981132076" y="370.60377358490564" type="curve"/>
      <point x="640.4716981132076" y="264.99056603773585"/>
      <point x="640.4716981132076" y="137.8490566037736"/>
      <point x="640.4716981132076" y="11.0" type="curve" smooth="yes"/>
      <point x="640.4716981132076" y="4.0"/>
      <point x="644.4716981132076" y="0.0"/>
      <point x="651.4716981132076" y="0.0" type="curve" smooth="yes"/>
      <point x="680.0377358490566" y="0.0"/>
      <point x="736.1981132075472" y="0.0"/>
    </contour>
    <contour>
      <point x="488.91509433962267" y="0.0" type="curve"/>
      <point x="488.91509433962267" y="213.21698113207546"/>
      <point x="488.91509433962267" y="351.8490566037736"/>
      <point x="488.91509433962267" y="414.85849056603774" type="curve" smooth="yes"/>
      <point x="488.91509433962267" y="505.9339622641509"/>
      <point x="433.00943396226415" y="547.3207547169811"/>
      <point x="359.20754716981133" y="547.3207547169811" type="curve" smooth="yes"/>
      <point x="303.7452830188679" y="547.3207547169811"/>
      <point x="257.0377358490566" y="514.4433962264151"/>
      <point x="219.82075471698113" y="457.85849056603774" type="curve"/>
      <point x="175.00943396226415" y="457.85849056603774" type="line"/>
      <point x="195.52830188679246" y="324.99056603773585" type="line"/>
      <point x="234.25471698113208" y="394.59433962264154"/>
      <point x="276.5660377358491" y="428.85849056603774"/>
      <point x="317.41509433962267" y="428.85849056603774" type="curve" smooth="yes"/>
      <point x="346.57547169811323" y="428.85849056603774"/>
      <point x="361.08490566037733" y="413.37735849056605"/>
      <point x="361.08490566037733" y="372.35849056603774" type="curve" smooth="yes"/>
      <point x="361.08490566037733" y="264.99056603773585"/>
      <point x="361.08490566037733" y="138.14150943396226"/>
      <point x="361.08490566037733" y="11.0" type="curve" smooth="yes"/>
      <point x="361.08490566037733" y="4.0"/>
      <point x="365.08490566037733" y="0.0"/>
      <point x="372.08490566037733" y="0.0" type="curve" smooth="yes"/>
      <point x="396.4056603773585" y="0.0"/>
      <point x="460.3490566037736" y="0.0"/>
    </contour>
    <contour>
      <point x="209.52830188679246" y="0.0" type="curve"/>
      <point x="209.52830188679246" y="148.35849056603774"/>
      <point x="209.52830188679246" y="295.37735849056605"/>
      <point x="209.52830188679246" y="424.14150943396226" type="curve"/>
      <point x="209.52830188679246" y="425.14150943396226"/>
      <point x="179.71698113207546" y="535.9056603773585"/>
      <point x="178.71698113207546" y="535.9056603773585" type="curve"/>
      <point x="152.9811320754717" y="535.9056603773585"/>
      <point x="107.43396226415095" y="535.9056603773585"/>
      <point x="81.69811320754718" y="535.9056603773585" type="curve"/>
      <point x="81.69811320754718" y="507.87735849056605"/>
      <point x="81.69811320754718" y="473.29245283018867"/>
      <point x="81.69811320754718" y="435.9056603773585" type="curve" smooth="yes"/>
      <point x="81.69811320754718" y="294.3679245283019"/>
      <point x="81.69811320754718" y="152.53773584905662"/>
      <point x="81.69811320754718" y="11.0" type="curve" smooth="yes"/>
      <point x="81.69811320754718" y="4.0"/>
      <point x="85.69811320754718" y="0.0"/>
      <point x="92.69811320754718" y="0.0" type="curve" smooth="yes"/>
      <point x="125.50943396226415" y="0.0"/>
      <point x="176.71698113207546" y="0.0"/>
    </contour>
  </outline>
</glyph>
<glyph name="q" format="2">
  <advance width="600.0"/>
  <unicode hex="0071"/>
  <outline>
    <contour>
      <point x="397.54716981132077" y="535.9056603773585" type="curve"/>
      <point x="397.54716981132077" y="502.3207547169811"/>
      <point x="397.54716981132077" y="468.6132075471698"/>
      <point x="397.54716981132077" y="435.9056603773585" type="curve"/>
      <point x="397.54716981132077" y="228.0754716981132"/>
      <point x="397.54716981132077" y="18.830188679245282"/>
      <point x="397.54716981132077" y="-189.0" type="curve"/>
      <point x="397.54716981132077" y="-196.0"/>
      <point x="401.54716981132077" y="-200.0"/>
      <point x="408.54716981132077" y="-200.0" type="curve" smooth="yes"/>
      <point x="446.311320754717" y="-200.0"/>
      <point x="480.5377358490566" y="-200.0"/>
      <point x="518.3018867924528" y="-200.0" type="curve"/>
      <point x="518.3018867924528" y="-158.4811320754717"/>
      <point x="518.3018867924528" y="-113.5754716981132"/>
      <point x="518.3018867924528" y="-65.33018867924528" type="curve" smooth="yes"/>
      <point x="518.3018867924528" y="122.45371600672453"/>
      <point x="518.3018867924528" y="328.39622641509436"/>
      <point x="518.3018867924528" y="524.9056603773585" type="curve"/>
      <point x="518.3018867924528" y="531.9056603773585"/>
      <point x="514.3018867924528" y="535.9056603773585"/>
      <point x="507.3018867924528" y="535.9056603773585" type="curve"/>
      <point x="469.5377358490566" y="535.9056603773585"/>
      <point x="435.311320754717" y="535.9056603773585"/>
    </contour>
    <contour>
      <point x="410.42452830188677" y="83.5377358490566" type="line"/>
      <point x="410.42452830188677" y="201.64150943396226" type="line"/>
      <point x="368.75090490542453" y="139.1696482571934"/>
      <point x="316.57887411070755" y="106.33962264150944"/>
      <point x="268.12264150943395" y="106.33962264150944" type="curve" smooth="yes"/>
      <point x="241.68867924528303" y="106.33962264150944"/>
      <point x="220.4245283018868" y="113.67924528301887"/>
      <point x="205.62264150943395" y="128.4811320754717" type="curve" smooth="yes"/>
      <point x="190.23584905660377" y="144.16037735849056"/>
      <point x="181.60377358490564" y="169.30188679245282"/>
      <point x="181.60377358490564" y="204.32075471698113" type="curve" smooth="yes"/>
      <point x="181.60377358490564" y="330.07547169811323" type="line" smooth="yes"/>
      <point x="181.60377358490564" y="395.3301886792453"/>
      <point x="213.96226415094338" y="430.9811320754717"/>
      <point x="268.12264150943395" y="430.9811320754717" type="curve" smooth="yes"/>
      <point x="316.89622641509436" y="430.9811320754717"/>
      <point x="368.6981132075472" y="405.37735849056605"/>
      <point x="410.42452830188677" y="353.9056603773585" type="curve"/>
      <point x="410.42452830188677" y="462.10377358490564" type="line"/>
      <point x="381.3018867924528" y="462.10377358490564" type="line"/>
      <point x="344.6698113207547" y="513.1981132075472"/>
      <point x="291.54716981132077" y="547.3207547169811"/>
      <point x="230.5754716981132" y="547.3207547169811" type="curve" smooth="yes"/>
      <point x="127.9433962264151" y="547.3207547169811"/>
      <point x="60.84905660377359" y="474.27358490566036"/>
      <point x="60.84905660377359" y="349.811320754717" type="curve" smooth="yes"/>
      <point x="60.84905660377359" y="184.58490566037736" type="line" smooth="yes"/>
      <point x="60.84905660377359" y="62.58490566037736"/>
      <point x="127.9433962264151" y="-10.0"/>
      <point x="229.4056603773585" y="-10.0" type="curve" smooth="yes"/>
      <point x="294.79245283018867" y="-10.0"/>
      <point x="349.62264150943395" y="22.075471698113205"/>
      <point x="382.7169811320755" y="83.5377358490566" type="curve"/>
    </contour>
  </outline>
</glyph>
<glyph name="x" format="2">
  <advance width="600.0"/>
  <unicode hex="0078"/>
  <outline>
    <contour>
      <point x="55.528301886792455" y="535.9056603773585" type="curve"/>
      <point x="117.40566037735849" y="439.12264150943395"/>
      <point x="178.28301886792454" y="342.6320754716981"/>
      <point x="240.16037735849056" y="245.8490566037736" type="curve"/>
      <point x="284.6320754716981" y="225.31132075471697" type="line"/>
      <point x="323.60377358490564" y="153.26415094339623"/>
      <point x="363.16037735849056" y="82.9245283018868"/>
      <point x="402.42452830188677" y="10.877358490566039" type="curve" smooth="yes"/>
      <point x="407.1320754716981" y="3.169811320754717"/>
      <point x="413.7169811320755" y="0.0"/>
      <point x="422.3018867924528" y="0.0" type="curve" smooth="yes"/>
      <point x="464.4811320754717" y="0.0"/>
      <point x="509.07547169811323" y="0.0"/>
      <point x="551.2547169811321" y="0.0" type="curve"/>
      <point x="487.25471698113205" y="100.19811320754717"/>
      <point x="422.54716981132077" y="199.39622641509433"/>
      <point x="358.54716981132077" y="299.5943396226415" type="curve"/>
      <point x="315.1981132075472" y="317.47169811320754" type="line"/>
      <point x="277.9339622641509" y="385.5188679245283"/>
      <point x="240.79245283018867" y="456.27358490566036"/>
      <point x="203.94339622641508" y="525.0283018867924" type="curve" smooth="yes"/>
      <point x="198.94339622641508" y="532.0283018867924"/>
      <point x="193.35849056603774" y="535.9056603773585"/>
      <point x="184.35849056603774" y="535.9056603773585" type="curve" smooth="yes"/>
      <point x="142.5943396226415" y="535.9056603773585"/>
      <point x="97.29245283018868" y="535.9056603773585"/>
    </contour>
    <contour>
      <point x="242.5754716981132" y="302.39622641509436" type="line"/>
      <point x="182.5754716981132" y="210.73584905660377"/>
      <point x="122.86792452830188" y="118.66037735849056"/>
      <point x="62.867924528301884" y="27.0" type="curve" smooth="yes"/>
      <point x="57.575471698113205" y="19.0"/>
      <point x="55.283018867924525" y="14.70754716981132"/>
      <point x="55.283018867924525" y="10.415094339622641" type="curve" smooth="yes"/>
      <point x="55.283018867924525" y="3.4150943396226414"/>
      <point x="59.283018867924525" y="-0.5849056603773586"/>
      <point x="66.99056603773585" y="-0.5849056603773586" type="curve" smooth="yes"/>
      <point x="187.6509433962264" y="0.0" type="line"/>
      <point x="221.25471698113208" y="64.14150943396227"/>
      <point x="254.9811320754717" y="127.69811320754718"/>
      <point x="286.24528301886795" y="192.1320754716981" type="curve"/>
      <point x="335.1792452830189" y="192.1320754716981" type="line"/>
    </contour>
    <contour>
      <point x="529.7924528301887" y="535.9056603773585" type="curve" smooth="yes"/>
      <point x="407.42452830188677" y="535.9056603773585" type="line"/>
      <point x="375.4056603773585" y="471.5188679245283"/>
      <point x="345.50943396226415" y="407.83962264150944"/>
      <point x="316.41509433962267" y="343.16037735849056" type="curve"/>
      <point x="270.89622641509436" y="343.16037735849056" type="line"/>
      <point x="358.79245283018867" y="239.67924528301887" type="line"/>
      <point x="418.08490566037733" y="331.04716981132077"/>
      <point x="478.79245283018867" y="423.41509433962267"/>
      <point x="537.7924528301887" y="514.4905660377359" type="curve" smooth="yes"/>
      <point x="540.7924528301887" y="519.4905660377359"/>
      <point x="541.7924528301887" y="523.1981132075472"/>
      <point x="541.7924528301887" y="526.1981132075472" type="curve" smooth="yes"/>
      <point x="541.7924528301887" y="533.1981132075472"/>
      <point x="536.5" y="535.9056603773585"/>
    </contour>
  </outline>
</glyph>
<glyph name="degree" format="2">
  <advance width="600.0"/>
  <unicode hex="00B0"/>
  <outline>
    <contour>
      <point x="300.0" y="710.0" type="curve"/>
      <point x="195.04716981132074" y="710.0"/>
      <point x="128.21698113207546" y="653.7075471698113"/>
      <point x="128.21698113207546" y="565.122641509434" type="curve" smooth="yes"/>
      <point x="128.21698113207546" y="509.5566037735849" type="line" smooth="yes"/>
      <point x="128.21698113207546" y="420.2641509433962"/>
      <point x="195.04716981132074" y="363.97169811320754"/>
      <point x="300.0" y="363.97169811320754" type="curve"/>
      <point x="404.95283018867923" y="363.97169811320754"/>
      <point x="471.7830188679245" y="420.2641509433962"/>
      <point x="471.7830188679245" y="509.5566037735849" type="curve" smooth="yes"/>
      <point x="471.7830188679245" y="565.122641509434" type="line" smooth="yes"/>
      <point x="471.7830188679245" y="653.7075471698113"/>
      <point x="404.95283018867923" y="710.0"/>
    </contour>
    <contour>
      <point x="300.0" y="446.64150943396226" type="curve" smooth="yes"/>
      <point x="269.49056603773585" y="446.64150943396226"/>
      <point x="246.1509433962264" y="454.5188679245283"/>
      <point x="232.10377358490567" y="468.5660377358491" type="curve" smooth="yes"/>
      <point x="220.0566037735849" y="480.6132075471698"/>
      <point x="213.88679245283018" y="496.12264150943395"/>
      <point x="213.88679245283018" y="515.9245283018868" type="curve" smooth="yes"/>
      <point x="213.88679245283018" y="558.0471698113207" type="line" smooth="yes"/>
      <point x="213.88679245283018" y="602.3584905660377"/>
      <point x="245.9811320754717" y="627.3301886792453"/>
      <point x="300.0" y="627.3301886792453" type="curve" smooth="yes"/>
      <point x="331.2169811320755" y="627.3301886792453"/>
      <point x="354.5566037735849" y="619.4528301886793"/>
      <point x="368.60377358490564" y="604.4056603773585" type="curve" smooth="yes"/>
      <point x="379.9433962264151" y="593.3584905660377"/>
      <point x="386.1132075471698" y="577.8490566037735"/>
      <point x="386.1132075471698" y="558.0471698113207" type="curve" smooth="yes"/>
      <point x="386.1132075471698" y="515.9245283018868" type="line" smooth="yes"/>
      <point x="386.1132075471698" y="472.3207547169811"/>
      <point x="354.0188679245283" y="446.64150943396226"/>
    </contour>
  </outline>
</glyph>
<glyph name="Eth" format="2">
  <advance width="650.0"/>
  <unicode hex="00D0"/>
  <outline>
    <contour>
      <point x="14.679245283018869" y="401.22641509433964" type="line"/>
      <point x="14.679245283018869" y="373.95283018867923"/>
      <point x="14.679245283018869" y="349.0943396226415"/>
      <point x="14.679245283018869" y="321.8207547169811" type="curve" smooth="yes"/>
      <point x="14.679245283018869" y="314.8207547169811"/>
      <point x="18.67924528301887" y="310.8207547169811"/>
      <point x="25.67924528301887" y="310.8207547169811" type="curve" smooth="yes"/>
      <point x="335.79245283018867" y="310.8207547169811" type="line"/>
      <point x="335.79245283018867" y="338.0943396226415"/>
      <point x="335.79245283018867" y="362.95283018867923"/>
      <point x="335.79245283018867" y="390.22641509433964" type="curve" smooth="yes"/>
      <point x="335.79245283018867" y="397.22641509433964"/>
      <point x="331.79245283018867" y="401.22641509433964"/>
      <point x="324.79245283018867" y="401.22641509433964" type="curve"/>
    </contour>
    <component base="D"/>
  </outline>
</glyph>
<glyph name="OE" format="2">
  <advance width="800.0"/>
  <unicode hex="0152"/>
  <outline>
    <contour>
      <point x="258.1132075471698" y="708.8301886792453" type="curve" smooth="yes"/>
      <point x="143.47169811320754" y="708.8301886792453"/>
      <point x="62.14150943396226" y="629.5566037735849"/>
      <point x="62.14150943396226" y="487.688679245283" type="curve" smooth="yes"/>
      <point x="62.14150943396226" y="211.14150943396226" type="line" smooth="yes"/>
      <point x="62.14150943396226" y="71.0754716981132"/>
      <point x="139.08490566037736" y="-8.830188679245282"/>
      <point x="258.1132075471698" y="-8.830188679245282" type="curve" smooth="yes"/>
      <point x="323.1132075471698" y="-8.830188679245282"/>
      <point x="374.8207547169811" y="17.169811320754718"/>
      <point x="414.9433962264151" y="70.16981132075472" type="curve"/>
      <point x="395.2358490566038" y="77.87735849056604" type="line"/>
      <point x="395.2358490566038" y="11.0" type="line" smooth="yes"/>
      <point x="395.2358490566038" y="5.0"/>
      <point x="400.2358490566038" y="0.0"/>
      <point x="406.2358490566038" y="0.0" type="curve" smooth="yes"/>
      <point x="747.0754716981132" y="0.0" type="line"/>
      <point x="747.0754716981132" y="33.93396226415094"/>
      <point x="747.0754716981132" y="67.16037735849056"/>
      <point x="747.0754716981132" y="101.0943396226415" type="curve" smooth="yes"/>
      <point x="747.0754716981132" y="107.38679245283018"/>
      <point x="742.3679245283018" y="112.0943396226415"/>
      <point x="736.0754716981132" y="112.0943396226415" type="curve" smooth="yes"/>
      <point x="515.9905660377358" y="112.0943396226415" type="line"/>
      <point x="515.9905660377358" y="258.9339622641509"/>
      <point x="515.9905660377358" y="406.6509433962264"/>
      <point x="515.9905660377358" y="553.4905660377359" type="curve" smooth="yes"/>
      <point x="515.9905660377358" y="572.566037735849"/>
      <point x="515.9905660377358" y="590.6415094339623"/>
      <point x="515.9905660377358" y="609.7169811320755" type="curve"/>
      <point x="525.066037735849" y="632.2547169811321" type="line"/>
      <point x="395.2358490566038" y="621.433962264151" type="line"/>
      <point x="395.2358490566038" y="469.95283018867923"/>
      <point x="395.2358490566038" y="313.37735849056605"/>
      <point x="395.2358490566038" y="161.89622641509433" type="curve"/>
      <point x="367.6509433962264" y="119.35849056603773"/>
      <point x="337.8490566037736" y="101.14150943396226"/>
      <point x="288.92452830188677" y="101.14150943396226" type="curve" smooth="yes"/>
      <point x="220.08490566037736" y="101.14150943396226"/>
      <point x="182.89622641509433" y="142.4245283018868"/>
      <point x="182.89622641509433" y="212.8490566037736" type="curve" smooth="yes"/>
      <point x="182.89622641509433" y="486.5660377358491" type="line" smooth="yes"/>
      <point x="182.89622641509433" y="557.4528301886793"/>
      <point x="222.25471698113208" y="598.8584905660377"/>
      <point x="287.4622641509434" y="598.8584905660377" type="curve" smooth="yes"/>
      <point x="336.0943396226415" y="598.8584905660377"/>
      <point x="367.6509433962264" y="578.6415094339623"/>
      <point x="395.2358490566038" y="535.3962264150944" type="curve"/>
      <point x="484.5188679245283" y="587.9056603773585" type="line"/>
      <point x="747.0754716981132" y="587.9056603773585" type="line"/>
      <point x="747.0754716981132" y="621.8396226415094"/>
      <point x="747.0754716981132" y="655.066037735849"/>
      <point x="747.0754716981132" y="689.0" type="curve" smooth="yes"/>
      <point x="747.0754716981132" y="696.0"/>
      <point x="743.0754716981132" y="700.0"/>
      <point x="736.0754716981132" y="700.0" type="curve"/>
      <point x="395.2358490566038" y="700.0" type="line"/>
      <point x="395.2358490566038" y="654.5377358490566" type="line"/>
      <point x="366.8679245283019" y="687.3679245283018"/>
      <point x="321.0377358490566" y="708.8301886792453"/>
    </contour>
    <contour>
      <point x="459.1509433962264" y="406.3018867924528" type="line"/>
      <point x="459.1509433962264" y="299.16037735849056" type="line"/>
      <point x="706.7830188679245" y="299.16037735849056" type="line"/>
      <point x="706.7830188679245" y="332.6792452830189"/>
      <point x="706.7830188679245" y="361.7830188679245"/>
      <point x="706.7830188679245" y="395.3018867924528" type="curve" smooth="yes"/>
      <point x="706.7830188679245" y="402.3018867924528"/>
      <point x="702.7830188679245" y="406.3018867924528"/>
      <point x="695.7830188679245" y="406.3018867924528" type="curve"/>
    </contour>
  </outline>
</glyph>
<glyph name="tbar" format="2">
  <advance width="500.0"/>
  <unicode hex="0167"/>
  <outline>
    <contour>
      <point x="42.924528301886795" y="328.3018867924528" type="line"/>
      <point x="42.924528301886795" y="301.02830188679246"/>
      <point x="42.924528301886795" y="276.1698113207547"/>
      <point x="42.924528301886795" y="248.89622641509433" type="curve" smooth="yes"/>
      <point x="42.924528301886795" y="241.89622641509433"/>
      <point x="46.924528301886795" y="237.89622641509433"/>
      <point x="53.924528301886795" y="237.89622641509433" type="curve" smooth="yes"/>
      <point x="440.0" y="237.89622641509433" type="line"/>
      <point x="440.0" y="265.1698113207547"/>
      <point x="440.0" y="290.02830188679246"/>
      <point x="440.0" y="317.3018867924528" type="curve" smooth="yes"/>
      <point x="440.0" y="323.5943396226415"/>
      <point x="435.29245283018867" y="328.3018867924528"/>
      <point x="429.0" y="328.3018867924528" type="curve"/>
    </contour>
    <component base="t"/>
  </outline>
</glyph>
<glyph name="nj" format="2">
  <advance width="900.0"/>
  <unicode hex="01CC"/>
  <outline>
    <contour>
      <point x="812.3018867924528" y="535.9056603773585" type="curve" smooth="yes"/>
      <point x="757.6698113207547" y="535.9056603773585"/>
      <point x="692.1320754716982" y="535.9056603773585"/>
      <point x="604.2452830188679" y="535.9056603773585" type="curve"/>
      <point x="604.2452830188679" y="501.2641509433962"/>
      <point x="604.2452830188679" y="467.3301886792453"/>
      <point x="604.2452830188679" y="432.688679245283" type="curve" smooth="yes"/>
      <point x="604.2452830188679" y="425.9811320754717"/>
      <point x="608.5377358490566" y="421.688679245283"/>
      <point x="615.2452830188679" y="421.688679245283" type="curve" smooth="yes"/>
      <point x="639.9716981132076" y="421.688679245283"/>
      <point x="676.7264150943396" y="421.688679245283"/>
      <point x="695.0849056603773" y="421.688679245283" type="curve"/>
      <point x="702.5471698113207" y="421.688679245283" type="line"/>
      <point x="702.5471698113207" y="282.4622641509434"/>
      <point x="702.5471698113207" y="148.89622641509433"/>
      <point x="702.5471698113207" y="-30.660377358490564" type="curve" smooth="yes"/>
      <point x="702.5471698113207" y="-52.509433962264154"/>
      <point x="697.377358490566" y="-67.89622641509435"/>
      <point x="687.3301886792453" y="-78.52830188679246" type="curve"/>
      <point x="677.2830188679245" y="-88.16037735849058"/>
      <point x="663.3584905660377" y="-93.3301886792453"/>
      <point x="643.8490566037735" y="-93.3301886792453" type="curve" smooth="yes"/>
      <point x="617.4622641509434" y="-93.3301886792453"/>
      <point x="601.0" y="-88.74528301886794"/>
      <point x="574.122641509434" y="-74.45283018867926" type="curve"/>
      <point x="556.4622641509434" y="-74.45283018867926" type="line"/>
      <point x="556.4622641509434" y="-110.50943396226415"/>
      <point x="556.4622641509434" y="-152.93396226415095"/>
      <point x="556.4622641509434" y="-188.99056603773585" type="curve" smooth="yes"/>
      <point x="556.4622641509434" y="-192.28301886792454"/>
      <point x="557.4622641509434" y="-194.99056603773585"/>
      <point x="559.4622641509434" y="-196.99056603773585" type="curve" smooth="yes"/>
      <point x="573.0" y="-210.52830188679246"/>
      <point x="611.122641509434" y="-221.69811320754718"/>
      <point x="673.3962264150944" y="-221.69811320754718" type="curve" smooth="yes"/>
      <point x="774.3490566037735" y="-221.69811320754718"/>
      <point x="823.3018867924528" y="-170.89622641509433"/>
      <point x="823.3018867924528" y="-34.19811320754718" type="curve" smooth="yes"/>
      <point x="823.3018867924528" y="171.50943396226415"/>
      <point x="823.3018867924528" y="348.20754716981133"/>
      <point x="823.3018867924528" y="524.9056603773585" type="curve" smooth="yes"/>
      <point x="823.3018867924528" y="531.6132075471698"/>
      <point x="819.5943396226415" y="535.9056603773585"/>
    </contour>
    <contour>
      <point x="682.5943396226415" y="788.5471698113207" type="curve"/>
      <point x="682.5943396226415" y="670.0188679245283" type="line" smooth="yes"/>
      <point x="682.5943396226415" y="663.0188679245283"/>
      <point x="686.5943396226415" y="659.0188679245283"/>
      <point x="693.5943396226415" y="659.0188679245283" type="curve" smooth="yes"/>
      <point x="739.9433962264151" y="659.0188679245283"/>
      <point x="794.0754716981132" y="659.0188679245283"/>
      <point x="840.4245283018868" y="659.0188679245283" type="curve"/>
      <point x="840.4245283018868" y="777.5471698113207" type="line" smooth="yes"/>
      <point x="840.4245283018868" y="784.5471698113207"/>
      <point x="836.4245283018868" y="788.5471698113207"/>
      <point x="829.4245283018868" y="788.5471698113207" type="curve" smooth="yes"/>
      <point x="783.0754716981132" y="788.5471698113207"/>
      <point x="728.9433962264151" y="788.5471698113207"/>
    </contour>
    <contour>
      <point x="526.8396226415094" y="0.0" type="curve"/>
      <point x="526.8396226415094" y="33.58490566037736"/>
      <point x="526.8396226415094" y="67.16981132075472"/>
      <point x="526.8396226415094" y="101.04716981132076" type="curve" smooth="yes"/>
      <point x="526.8396226415094" y="199.58490566037736"/>
      <point x="526.8396226415094" y="297.0"/>
      <point x="526.8396226415094" y="393.70754716981133" type="curve" smooth="yes"/>
      <point x="526.8396226415094" y="486.85849056603774"/>
      <point x="473.47169811320754" y="547.3207547169811"/>
      <point x="385.7169811320755" y="547.3207547169811" type="curve"/>
      <point x="317.08490566037733" y="547.3207547169811"/>
      <point x="261.5" y="507.3207547169811"/>
      <point x="220.1132075471698" y="448.4433962264151" type="curve"/>
      <point x="186.62264150943395" y="448.4433962264151" type="line"/>
      <point x="186.62264150943395" y="338.2358490566038" type="line"/>
      <point x="235.02830188679246" y="400.47169811320754"/>
      <point x="298.27358490566036" y="430.9811320754717"/>
      <point x="347.41509433962267" y="430.9811320754717" type="curve" smooth="yes"/>
      <point x="386.89622641509436" y="430.9811320754717"/>
      <point x="406.08490566037733" y="411.1320754716981"/>
      <point x="406.08490566037733" y="368.8490566037736" type="curve" smooth="yes"/>
      <point x="406.08490566037733" y="249.80188679245282"/>
      <point x="406.08490566037733" y="130.04716981132074"/>
      <point x="406.08490566037733" y="11.0" type="curve" smooth="yes"/>
      <point x="406.08490566037733" y="4.0"/>
      <point x="410.08490566037733" y="0.0"/>
      <point x="417.08490566037733" y="0.0" type="curve" smooth="yes"/>
      <point x="456.2641509433962" y="0.0"/>
      <point x="487.66037735849056" y="0.0"/>
    </contour>
    <contour>
      <point x="202.45283018867923" y="0.0" type="curve"/>
      <point x="202.45283018867923" y="174.53773584905662"/>
      <point x="202.45283018867923" y="350.3679245283019"/>
      <point x="202.45283018867923" y="524.9056603773585" type="curve" smooth="yes"/>
      <point x="202.45283018867923" y="531.9056603773585"/>
      <point x="198.45283018867923" y="535.9056603773585"/>
      <point x="191.45283018867923" y="535.9056603773585" type="curve"/>
      <point x="155.81132075471697" y="535.9056603773585"/>
      <point x="124.41509433962264" y="535.9056603773585"/>
      <point x="81.69811320754718" y="535.9056603773585" type="curve"/>
      <point x="81.69811320754718" y="511.41509433962267"/>
      <point x="81.69811320754718" y="476.8301886792453"/>
      <point x="81.69811320754718" y="437.3207547169811" type="curve" smooth="yes"/>
      <point x="81.69811320754718" y="295.07547169811323"/>
      <point x="81.69811320754718" y="153.24528301886792"/>
      <point x="81.69811320754718" y="11.0" type="curve" smooth="yes"/>
      <point x="81.69811320754718" y="4.0"/>
      <point x="85.69811320754718" y="0.0"/>
      <point x="92.69811320754718" y="0.0" type="curve" smooth="yes"/>
      <point x="131.87735849056602" y="0.0"/>
      <point x="163.27358490566039" y="0.0"/>
    </contour>
  </outline>
</glyph>
<glyph name="ringhalfleftmod" format="2">
  <advance width="200.0"/>
  <unicode hex="02BF"/>
  <outline>
    <contour>
      <point x="157.0754716981132" y="602.6509433962265" type="curve" smooth="yes"/>
      <point x="164.78301886792454" y="602.6509433962265"/>
      <point x="167.0754716981132" y="605.9433962264151"/>
      <point x="167.0754716981132" y="615.6509433962265" type="curve" smooth="yes"/>
      <point x="167.0754716981132" y="636.2641509433962"/>
      <point x="167.0754716981132" y="655.4622641509434"/>
      <point x="167.0754716981132" y="673.9528301886793" type="curve"/>
      <point x="139.9056603773585" y="673.9528301886793"/>
      <point x="126.44339622641509" y="678.9528301886793"/>
      <point x="117.56603773584905" y="687.5377358490566" type="curve"/>
      <point x="108.27358490566037" y="696.122641509434"/>
      <point x="103.68867924528303" y="707.7075471698113"/>
      <point x="103.68867924528303" y="722.5849056603773" type="curve" smooth="yes"/>
      <point x="103.68867924528303" y="740.9245283018868" type="line" smooth="yes"/>
      <point x="103.68867924528303" y="772.3867924528302"/>
      <point x="123.44339622641509" y="790.5566037735849"/>
      <point x="157.0754716981132" y="790.5566037735849" type="curve" smooth="yes"/>
      <point x="164.78301886792454" y="790.5566037735849"/>
      <point x="167.0754716981132" y="794.2641509433962"/>
      <point x="167.0754716981132" y="803.2641509433962" type="curve" smooth="yes"/>
      <point x="167.0754716981132" y="817.5094339622641"/>
      <point x="167.0754716981132" y="842.3679245283018"/>
      <point x="167.0754716981132" y="861.566037735849" type="curve"/>
      <point x="75.33962264150944" y="861.566037735849"/>
      <point x="23.849056603773587" y="815.9056603773585"/>
      <point x="23.849056603773587" y="746.1698113207547" type="curve" smooth="yes"/>
      <point x="23.849056603773587" y="718.0471698113207" type="line" smooth="yes"/>
      <point x="23.849056603773587" y="648.0188679245283"/>
      <point x="75.33962264150944" y="602.6509433962265"/>
    </contour>
  </outline>
</glyph>
<glyph name="verticallinemod" format="2">
  <advance width="200.0"/>
  <unicode hex="02C8"/>
  <outline>
    <contour>
      <point x="156.76415094339623" y="439.92452830188677" type="curve"/>
      <point x="156.76415094339623" y="737.0" type="line" smooth="yes"/>
      <point x="156.76415094339623" y="746.0"/>
      <point x="152.76415094339623" y="750.0"/>
      <point x="146.76415094339623" y="750.0" type="curve" smooth="yes"/>
      <point x="105.12264150943396" y="750.0"/>
      <point x="76.38679245283019" y="750.0"/>
      <point x="43.235849056603776" y="750.0" type="curve"/>
      <point x="43.235849056603776" y="714.0"/>
      <point x="43.235849056603776" y="683.0"/>
      <point x="43.235849056603776" y="648.0" type="curve" smooth="yes"/>
      <point x="43.235849056603776" y="450.92452830188677" type="line" smooth="yes"/>
      <point x="43.235849056603776" y="443.92452830188677"/>
      <point x="49.235849056603776" y="439.92452830188677"/>
      <point x="55.235849056603776" y="439.92452830188677" type="curve" smooth="yes"/>
      <point x="89.50943396226415" y="439.92452830188677"/>
      <point x="121.32075471698113" y="439.92452830188677"/>
    </contour>
  </outline>
</glyph>
<glyph name="second" format="2">
  <advance width="450.0"/>
  <unicode hex="2033"/>
  <outline>
    <contour>
      <point x="101.13207547169812" y="439.92452830188677" type="curve" smooth="yes"/>
      <point x="106.13207547169812" y="439.92452830188677"/>
      <point x="112.54716981132074" y="441.92452830188677"/>
      <point x="115.13207547169812" y="447.92452830188677" type="curve" smooth="yes"/>
      <point x="160.1509433962264" y="546.2169811320755"/>
      <point x="209.24528301886792" y="646.0"/>
      <point x="251.80188679245282" y="737.0" type="curve" smooth="yes"/>
      <point x="255.38679245283018" y="745.0"/>
      <point x="251.80188679245282" y="750.0"/>
      <point x="243.80188679245282" y="750.0" type="curve" smooth="yes"/>
      <point x="207.06603773584905" y="750.0"/>
      <point x="152.08490566037736" y="750.0"/>
      <point x="108.85849056603774" y="750.0" type="curve"/>
      <point x="72.9622641509434" y="644.0"/>
      <point x="44.113207547169814" y="553.9245283018868"/>
      <point x="2.9245283018867934" y="439.92452830188677" type="curve"/>
      <point x="35.95283018867924" y="439.92452830188677"/>
      <point x="75.0566037735849" y="439.92452830188677"/>
    </contour>
    <contour>
      <point x="295.2830188679245" y="439.92452830188677" type="curve" smooth="yes"/>
      <point x="300.2830188679245" y="439.92452830188677"/>
      <point x="306.6981132075472" y="441.92452830188677"/>
      <point x="309.2830188679245" y="447.92452830188677" type="curve" smooth="yes"/>
      <point x="354.3018867924528" y="546.2169811320755"/>
      <point x="403.39622641509436" y="646.0"/>
      <point x="445.95283018867923" y="737.0" type="curve" smooth="yes"/>
      <point x="449.5377358490566" y="745.0"/>
      <point x="445.95283018867923" y="750.0"/>
      <point x="437.95283018867923" y="750.0" type="curve" smooth="yes"/>
      <point x="401.2169811320755" y="750.0"/>
      <point x="346.2358490566038" y="750.0"/>
      <point x="303.00943396226415" y="750.0" type="curve"/>
      <point x="267.1132075471698" y="644.0"/>
      <point x="238.26415094339623" y="553.9245283018868"/>
      <point x="197.0754716981132" y="439.92452830188677" type="curve"/>
      <point x="230.10377358490567" y="439.92452830188677"/>
      <point x="269.20754716981133" y="439.92452830188677"/>
    </contour>
  </outline>
</glyph>
<glyph name="arrowleftright" format="2">
  <advance width="1100.0"/>
  <unicode hex="2194"/>
  <outline>
    <contour>
      <point x="425.00943396226415" y="297.8207547169811" type="curve" smooth="yes"/>
      <point x="665.0849056603773" y="297.8207547169811" type="line" smooth="yes"/>
      <point x="713.7452830188679" y="297.8207547169811"/>
      <point x="752.6415094339623" y="303.6509433962264"/>
      <point x="840.377358490566" y="326.04716981132077" type="curve"/>
      <point x="840.377358490566" y="333.04716981132077"/>
      <point x="840.377358490566" y="351.12264150943395"/>
      <point x="840.377358490566" y="358.12264150943395" type="curve" smooth="yes"/>
      <point x="840.377358490566" y="365.12264150943395"/>
      <point x="837.7924528301887" y="371.95283018867923"/>
      <point x="830.7924528301887" y="373.3679245283019" type="curve" smooth="yes"/>
      <point x="764.5471698113207" y="390.5188679245283"/>
      <point x="722.2358490566038" y="397.3490566037736"/>
      <point x="671.4528301886793" y="397.3490566037736" type="curve" smooth="yes"/>
      <point x="421.47169811320754" y="397.3490566037736" type="line" smooth="yes"/>
      <point x="376.3490566037736" y="397.3490566037736"/>
      <point x="336.0377358490566" y="390.811320754717"/>
      <point x="259.62264150943395" y="369.12264150943395" type="curve"/>
      <point x="259.62264150943395" y="362.12264150943395"/>
      <point x="259.62264150943395" y="346.1698113207547"/>
      <point x="259.62264150943395" y="339.1698113207547" type="curve" smooth="yes"/>
      <point x="259.62264150943395" y="332.1698113207547"/>
      <point x="262.91509433962267" y="327.4622641509434"/>
      <point x="269.91509433962267" y="325.33962264150944" type="curve" smooth="yes"/>
      <point x="332.62264150943395" y="307.4811320754717"/>
      <point x="379.8867924528302" y="297.8207547169811"/>
    </contour>
    <contour>
      <point x="55.84905660377359" y="401.42452830188677" type="curve"/>
      <point x="55.84905660377359" y="311.57547169811323" type="line" smooth="yes"/>
      <point x="55.84905660377359" y="298.8679245283019"/>
      <point x="57.84905660377359" y="294.99056603773585"/>
      <point x="70.38679245283019" y="285.8679245283019" type="curve" smooth="yes"/>
      <point x="125.68867924528303" y="245.53773584905662"/>
      <point x="270.4339622641509" y="147.18867924528303"/>
      <point x="372.4339622641509" y="77.14150943396227" type="curve" smooth="yes"/>
      <point x="385.4339622641509" y="67.84905660377359"/>
      <point x="388.4339622641509" y="66.84905660377359"/>
      <point x="393.14150943396226" y="66.84905660377359" type="curve" smooth="yes"/>
      <point x="397.8490566037736" y="66.84905660377359"/>
      <point x="400.5566037735849" y="70.55660377358491"/>
      <point x="400.5566037735849" y="75.26415094339623" type="curve"/>
      <point x="400.5566037735849" y="111.49056603773585"/>
      <point x="400.5566037735849" y="146.5943396226415"/>
      <point x="400.5566037735849" y="182.82075471698113" type="curve"/>
      <point x="220.47169811320754" y="303.1981132075472"/>
      <point x="209.00943396226415" y="308.5377358490566"/>
      <point x="121.59433962264151" y="350.70754716981133" type="curve"/>
      <point x="145.37735849056605" y="313.29245283018867" type="line"/>
      <point x="145.37735849056605" y="384.12264150943395" type="line"/>
      <point x="121.59433962264151" y="346.70754716981133" type="line"/>
      <point x="209.00943396226415" y="388.87735849056605"/>
      <point x="220.47169811320754" y="394.2169811320755"/>
      <point x="400.5566037735849" y="514.5943396226415" type="curve"/>
      <point x="400.5566037735849" y="550.8207547169811"/>
      <point x="400.5566037735849" y="585.9245283018868"/>
      <point x="400.5566037735849" y="622.1509433962265" type="curve"/>
      <point x="400.5566037735849" y="626.8584905660377"/>
      <point x="397.8490566037736" y="630.566037735849"/>
      <point x="393.14150943396226" y="630.566037735849" type="curve" smooth="yes"/>
      <point x="388.4339622641509" y="630.566037735849"/>
      <point x="385.4339622641509" y="629.566037735849"/>
      <point x="372.4339622641509" y="620.2735849056604" type="curve" smooth="yes"/>
      <point x="265.72641509433964" y="546.5188679245283"/>
      <point x="161.8490566037736" y="474.47169811320754"/>
    </contour>
    <contour>
      <point x="1044.1509433962265" y="295.99056603773585" type="curve"/>
      <point x="1044.1509433962265" y="385.83962264150944" type="line" smooth="yes"/>
      <point x="1044.1509433962265" y="398.54716981132077"/>
      <point x="1042.1509433962265" y="402.42452830188677"/>
      <point x="1029.6132075471698" y="411.54716981132077" type="curve" smooth="yes"/>
      <point x="974.311320754717" y="451.87735849056605"/>
      <point x="829.566037735849" y="550.2264150943396"/>
      <point x="727.566037735849" y="620.2735849056604" type="curve" smooth="yes"/>
      <point x="714.566037735849" y="629.566037735849"/>
      <point x="711.566037735849" y="630.566037735849"/>
      <point x="706.8584905660377" y="630.566037735849" type="curve" smooth="yes"/>
      <point x="702.1509433962265" y="630.566037735849"/>
      <point x="699.4433962264151" y="626.8584905660377"/>
      <point x="699.4433962264151" y="622.1509433962265" type="curve"/>
      <point x="699.4433962264151" y="585.9245283018868"/>
      <point x="699.4433962264151" y="550.8207547169811"/>
      <point x="699.4433962264151" y="514.5943396226415" type="curve"/>
      <point x="879.5283018867924" y="394.2169811320755"/>
      <point x="890.9905660377359" y="388.87735849056605"/>
      <point x="978.4056603773585" y="346.70754716981133" type="curve"/>
      <point x="954.622641509434" y="384.12264150943395" type="line"/>
      <point x="954.622641509434" y="313.29245283018867" type="line"/>
      <point x="978.4056603773585" y="350.70754716981133" type="line"/>
      <point x="890.9905660377359" y="308.5377358490566"/>
      <point x="879.5283018867924" y="303.1981132075472"/>
      <point x="699.4433962264151" y="182.82075471698113" type="curve"/>
      <point x="699.4433962264151" y="146.5943396226415"/>
      <point x="699.4433962264151" y="111.49056603773585"/>
      <point x="699.4433962264151" y="75.26415094339623" type="curve"/>
      <point x="699.4433962264151" y="70.55660377358491"/>
      <point x="702.1509433962265" y="66.84905660377359"/>
      <point x="706.8584905660377" y="66.84905660377359" type="curve" smooth="yes"/>
      <point x="711.566037735849" y="66.84905660377359"/>
      <point x="714.566037735849" y="67.84905660377359"/>
      <point x="727.566037735849" y="77.14150943396227" type="curve" smooth="yes"/>
      <point x="834.2735849056604" y="150.89622641509433"/>
      <point x="938.1509433962265" y="222.9433962264151"/>
    </contour>
  </outline>
</glyph>
<glyph name="approxequal" format="2">
  <advance width="600.0"/>
  <unicode hex="2248"/>
  <outline>
    <contour>
      <point x="427.5377358490566" y="431.54716981132077" type="curve" smooth="yes"/>
      <point x="343.70754716981133" y="431.54716981132077"/>
      <point x="280.49056603773585" y="531.5471698113207"/>
      <point x="177.12264150943398" y="531.5471698113207" type="curve" smooth="yes"/>
      <point x="124.12264150943396" y="531.5471698113207"/>
      <point x="89.29245283018868" y="514.9622641509434"/>
      <point x="65.0" y="488.25471698113205" type="curve" smooth="yes"/>
      <point x="57.0" y="479.54716981132077"/>
      <point x="57.0" y="474.54716981132077"/>
      <point x="57.0" y="464.1792452830189" type="curve" smooth="yes"/>
      <point x="57.0" y="436.02830188679246"/>
      <point x="57.0" y="401.50943396226415"/>
      <point x="57.0" y="367.57547169811323" type="curve"/>
      <point x="74.66037735849056" y="367.57547169811323" type="line"/>
      <point x="103.29245283018868" y="402.3301886792453"/>
      <point x="132.83018867924528" y="416.62264150943395"/>
      <point x="172.46226415094338" y="416.62264150943395" type="curve" smooth="yes"/>
      <point x="256.29245283018867" y="416.62264150943395"/>
      <point x="319.50943396226415" y="316.62264150943395"/>
      <point x="422.87735849056605" y="316.62264150943395" type="curve" smooth="yes"/>
      <point x="475.87735849056605" y="316.62264150943395"/>
      <point x="510.70754716981133" y="333.20754716981133"/>
      <point x="535.0" y="359.91509433962267" type="curve" smooth="yes"/>
      <point x="543.0" y="368.62264150943395"/>
      <point x="543.0" y="373.62264150943395"/>
      <point x="543.0" y="383.99056603773585" type="curve" smooth="yes"/>
      <point x="543.0" y="412.14150943396226"/>
      <point x="543.0" y="446.66037735849056"/>
      <point x="543.0" y="480.5943396226415" type="curve"/>
      <point x="525.3396226415094" y="480.5943396226415" type="line"/>
      <point x="496.70754716981133" y="445.83962264150944"/>
      <point x="467.1698113207547" y="431.54716981132077"/>
    </contour>
    <contour>
      <point x="427.5377358490566" y="181.54716981132074" type="curve" smooth="yes"/>
      <point x="343.70754716981133" y="181.54716981132074"/>
      <point x="280.49056603773585" y="281.54716981132077"/>
      <point x="177.12264150943398" y="281.54716981132077" type="curve" smooth="yes"/>
      <point x="124.12264150943396" y="281.54716981132077"/>
      <point x="89.29245283018868" y="264.9622641509434"/>
      <point x="65.0" y="238.25471698113208" type="curve" smooth="yes"/>
      <point x="57.0" y="229.54716981132074"/>
      <point x="57.0" y="224.54716981132074"/>
      <point x="57.0" y="214.17924528301887" type="curve" smooth="yes"/>
      <point x="57.0" y="186.02830188679246"/>
      <point x="57.0" y="151.50943396226415"/>
      <point x="57.0" y="117.5754716981132" type="curve"/>
      <point x="74.66037735849056" y="117.5754716981132" type="line"/>
      <point x="103.29245283018868" y="152.33018867924528"/>
      <point x="132.83018867924528" y="166.62264150943395"/>
      <point x="172.46226415094338" y="166.62264150943395" type="curve" smooth="yes"/>
      <point x="256.29245283018867" y="166.62264150943395"/>
      <point x="319.50943396226415" y="66.62264150943396"/>
      <point x="422.87735849056605" y="66.62264150943396" type="curve" smooth="yes"/>
      <point x="475.87735849056605" y="66.62264150943396"/>
      <point x="510.70754716981133" y="83.20754716981132"/>
      <point x="535.0" y="109.91509433962264" type="curve" smooth="yes"/>
      <point x="543.0" y="118.62264150943396"/>
      <point x="543.0" y="123.62264150943396"/>
      <point x="543.0" y="133.99056603773585" type="curve" smooth="yes"/>
      <point x="543.0" y="162.14150943396226"/>
      <point x="543.0" y="196.66037735849056"/>
      <point x="543.0" y="230.5943396226415" type="curve"/>
      <point x="525.3396226415094" y="230.5943396226415" type="line"/>
      <point x="496.70754716981133" y="195.83962264150944"/>
      <point x="467.1698113207547" y="181.54716981132074"/>
    </contour>
  </outline>
</glyph>
<glyph name="equivalence" format="2">
  <advance width="600.0"/>
  <unicode hex="2261"/>
  <outline>
    <contour>
      <point x="64.67924528301887" y="609.9056603773585" type="line"/>
      <point x="64.67924528301887" y="573.5566037735849"/>
      <point x="64.67924528301887" y="542.1603773584906"/>
      <point x="64.67924528301887" y="505.811320754717" type="curve" smooth="yes"/>
      <point x="64.67924528301887" y="498.811320754717"/>
      <point x="68.67924528301887" y="494.811320754717"/>
      <point x="75.67924528301887" y="494.811320754717" type="curve" smooth="yes"/>
      <point x="535.3207547169811" y="494.811320754717" type="line"/>
      <point x="535.3207547169811" y="531.1603773584906"/>
      <point x="535.3207547169811" y="562.5566037735849"/>
      <point x="535.3207547169811" y="598.9056603773585" type="curve" smooth="yes"/>
      <point x="535.3207547169811" y="605.9056603773585"/>
      <point x="531.3207547169811" y="609.9056603773585"/>
      <point x="524.3207547169811" y="609.9056603773585" type="curve"/>
    </contour>
    <contour>
      <point x="64.67924528301887" y="358.25471698113205" type="line"/>
      <point x="64.67924528301887" y="321.9056603773585"/>
      <point x="64.67924528301887" y="290.50943396226415"/>
      <point x="64.67924528301887" y="254.16037735849056" type="curve" smooth="yes"/>
      <point x="64.67924528301887" y="247.16037735849056"/>
      <point x="68.67924528301887" y="243.16037735849056"/>
      <point x="75.67924528301887" y="243.16037735849056" type="curve" smooth="yes"/>
      <point x="535.3207547169811" y="243.16037735849056" type="line"/>
      <point x="535.3207547169811" y="279.50943396226415"/>
      <point x="535.3207547169811" y="310.9056603773585"/>
      <point x="535.3207547169811" y="347.25471698113205" type="curve" smooth="yes"/>
      <point x="535.3207547169811" y="354.25471698113205"/>
      <point x="531.3207547169811" y="358.25471698113205"/>
      <point x="524.3207547169811" y="358.25471698113205" type="curve"/>
    </contour>
    <contour>
      <point x="64.67924528301887" y="106.60377358490565" type="line"/>
      <point x="64.67924528301887" y="70.25471698113208"/>
      <point x="64.67924528301887" y="38.85849056603774"/>
      <point x="64.67924528301887" y="2.5094339622641506" type="curve" smooth="yes"/>
      <point x="64.67924528301887" y="-4.490566037735849"/>
      <point x="68.67924528301887" y="-8.49056603773585"/>
      <point x="75.67924528301887" y="-8.49056603773585" type="curve" smooth="yes"/>
      <point x="535.3207547169811" y="-8.49056603773585" type="line"/>
      <point x="535.3207547169811" y="27.858490566037737"/>
      <point x="535.3207547169811" y="59.25471698113207"/>
      <point x="535.3207547169811" y="95.60377358490565" type="curve" smooth="yes"/>
      <point x="535.3207547169811" y="102.60377358490565"/>
      <point x="531.3207547169811" y="106.60377358490565"/>
      <point x="524.3207547169811" y="106.60377358490565" type="curve"/>
    </contour>
  </outline>
</glyph>
<glyph name="lozenge" format="2">
  <advance width="600.0"/>
  <unicode hex="25CA"/>
  <outline>
    <contour>
      <point x="220.96226415094338" y="700.0" type="curve"/>
      <point x="161.28301886792454" y="571.122641509434"/>
      <point x="86.89622641509433" y="411.5377358490566"/>
      <point x="67.31132075471697" y="371.8301886792453" type="curve" smooth="yes"/>
      <point x="61.72641509433963" y="359.8301886792453"/>
      <point x="60.72641509433963" y="355.41509433962267"/>
      <point x="60.72641509433963" y="350.0" type="curve" smooth="yes"/>
      <point x="60.72641509433963" y="344.58490566037733"/>
      <point x="61.72641509433963" y="340.1698113207547"/>
      <point x="67.31132075471697" y="328.1698113207547" type="curve" smooth="yes"/>
      <point x="107.83018867924528" y="236.68867924528303"/>
      <point x="158.4056603773585" y="134.6320754716981"/>
      <point x="213.83962264150944" y="12.830188679245282" type="curve" smooth="yes"/>
      <point x="218.1320754716981" y="4.122641509433962"/>
      <point x="223.25471698113208" y="0.0"/>
      <point x="232.66981132075472" y="0.0" type="curve" smooth="yes"/>
      <point x="281.5566037735849" y="0.0"/>
      <point x="330.4433962264151" y="0.0"/>
      <point x="379.3301886792453" y="0.0" type="curve"/>
      <point x="438.7169811320755" y="128.87735849056602"/>
      <point x="513.3962264150944" y="288.4622641509434"/>
      <point x="532.9811320754717" y="328.1698113207547" type="curve" smooth="yes"/>
      <point x="538.2735849056604" y="340.1698113207547"/>
      <point x="539.2735849056604" y="344.58490566037733"/>
      <point x="539.2735849056604" y="350.0" type="curve" smooth="yes"/>
      <point x="539.2735849056604" y="355.41509433962267"/>
      <point x="538.2735849056604" y="359.8301886792453"/>
      <point x="532.9811320754717" y="371.8301886792453" type="curve" smooth="yes"/>
      <point x="492.4622641509434" y="463.311320754717"/>
      <point x="442.3018867924528" y="565.3679245283018"/>
      <point x="386.16037735849056" y="687.1698113207547" type="curve" smooth="yes"/>
      <point x="382.8679245283019" y="695.877358490566"/>
      <point x="376.7452830188679" y="700.0"/>
      <point x="367.3301886792453" y="700.0" type="curve" smooth="yes"/>
      <point x="318.4433962264151" y="700.0"/>
      <point x="269.8490566037736" y="700.0"/>
    </contour>
    <contour>
      <point x="183.06603773584905" y="350.29245283018867" type="curve"/>
      <point x="220.37735849056605" y="433.77358490566036"/>
      <point x="258.688679245283" y="517.6698113207547"/>
      <point x="296.0" y="601.1509433962265" type="curve"/>
      <point x="273.0943396226415" y="590.6132075471698" type="line"/>
      <point x="328.7358490566038" y="590.6132075471698" type="line" smooth="yes"/>
      <point x="305.24528301886795" y="600.4433962264151" type="line"/>
      <point x="342.14150943396226" y="516.9622641509434"/>
      <point x="380.0377358490566" y="433.188679245283"/>
      <point x="416.933962264151" y="349.70754716981133" type="curve"/>
      <point x="380.0377358490566" y="266.22641509433964"/>
      <point x="342.72641509433964" y="183.45283018867923"/>
      <point x="304.41509433962267" y="99.97169811320754" type="curve"/>
      <point x="322.95283018867923" y="109.0943396226415" type="line"/>
      <point x="277.0943396226415" y="109.0943396226415" type="line" smooth="yes"/>
      <point x="294.04716981132077" y="101.50943396226414" type="line"/>
      <point x="257.1509433962264" y="184.5754716981132"/>
      <point x="219.96226415094338" y="267.22641509433964"/>
    </contour>
  </outline>
</glyph>
<glyph name="hookcomb.case" format="2">
  <anchor x="0.0" y="710.0" name="_hook"/>
  <anchor x="0.0" y="684.8490566037735" name="_side"/>
  <outline>
    <contour>
      <point x="-53.424528301886795" y="752.0471698113207" type="curve" smooth="yes"/>
      <point x="-59.132075471698116" y="745.0471698113207"/>
      <point x="-60.424528301886795" y="739.0471698113207"/>
      <point x="-50.424528301886795" y="739.0471698113207" type="curve" smooth="yes"/>
      <point x="-31.886792452830186" y="739.0471698113207"/>
      <point x="6.2924528301886795" y="739.0471698113207"/>
      <point x="30.19811320754717" y="739.0471698113207" type="curve"/>
      <point x="42.198113207547166" y="753.2169811320755"/>
      <point x="56.783018867924525" y="771.2641509433962"/>
      <point x="70.36792452830188" y="788.7264150943396" type="curve" smooth="yes"/>
      <point x="91.78301886792453" y="815.188679245283"/>
      <point x="110.19811320754717" y="839.066037735849"/>
      <point x="110.19811320754717" y="841.066037735849" type="curve" smooth="yes"/>
      <point x="110.19811320754717" y="910.5188679245283" type="line" smooth="yes"/>
      <point x="110.19811320754717" y="918.5188679245283"/>
      <point x="105.19811320754717" y="921.5188679245283"/>
      <point x="98.19811320754717" y="921.5188679245283" type="curve" smooth="yes"/>
      <point x="45.198113207547166" y="921.5188679245283"/>
      <point x="-69.71698113207547" y="921.5188679245283"/>
      <point x="-106.71698113207547" y="921.5188679245283" type="curve" smooth="yes"/>
      <point x="-113.71698113207547" y="921.5188679245283"/>
      <point x="-117.71698113207547" y="917.5188679245283"/>
      <point x="-117.71698113207547" y="910.5188679245283" type="curve" smooth="yes"/>
      <point x="-117.71698113207547" y="889.8584905660377"/>
      <point x="-117.71698113207547" y="870.1698113207547"/>
      <point x="-117.71698113207547" y="839.8962264150944" type="curve"/>
      <point x="-95.71698113207547" y="839.8962264150944" type="line"/>
      <point x="-78.71698113207547" y="839.8962264150944"/>
      <point x="-47.9622641509434" y="839.8962264150944"/>
      <point x="-35.9622641509434" y="839.8962264150944" type="curve" smooth="yes"/>
      <point x="-23.962264150943398" y="839.8962264150944"/>
      <point x="-8.962264150943398" y="839.8962264150944"/>
      <point x="1.0377358490566024" y="839.8962264150944" type="curve"/>
      <point x="1.0377358490566024" y="833.8962264150944"/>
      <point x="1.0377358490566024" y="829.8962264150944"/>
      <point x="1.0377358490566024" y="827.8962264150944" type="curve"/>
      <point x="-7.669811320754718" y="813.8962264150944"/>
      <point x="-16.37735849056604" y="801.6037735849056"/>
      <point x="-24.37735849056604" y="791.0188679245283" type="curve" smooth="yes"/>
      <point x="-34.66981132075472" y="776.8490566037735"/>
      <point x="-44.54716981132075" y="764.8018867924528"/>
    </contour>
  </outline>
</glyph>
<glyph name="macroncomb.case" format="2">
  <anchor x="0.0" y="711.7075471698113" name="_top"/>
  <anchor x="0.0" y="881.2830188679245" name="top"/>
  <outline>
    <contour>
      <point x="-178.24528301886792" y="905.1603773584906" type="line"/>
      <point x="-178.24528301886792" y="873.7641509433962"/>
      <point x="-178.24528301886792" y="845.9056603773585"/>
      <point x="-178.24528301886792" y="814.5094339622641" type="curve" smooth="yes"/>
      <point x="-178.24528301886792" y="807.5094339622641"/>
      <point x="-174.24528301886792" y="803.5094339622641"/>
      <point x="-167.24528301886792" y="803.5094339622641" type="curve" smooth="yes"/>
      <point x="178.24528301886792" y="803.5094339622641" type="line"/>
      <point x="178.24528301886792" y="834.9056603773585"/>
      <point x="178.24528301886792" y="862.7641509433962"/>
      <point x="178.24528301886792" y="894.1603773584906" type="curve" smooth="yes"/>
      <point x="178.24528301886792" y="901.1603773584906"/>
      <point x="174.24528301886792" y="905.1603773584906"/>
      <point x="167.24528301886792" y="905.1603773584906" type="curve" smooth="yes"/>
    </contour>
  </outline>
</glyph>
<glyph name="slashcomb.case" format="2">
  <anchor x="0.0" y="410.5377358490566" name="_slash"/>
  <outline>
    <contour>
      <point x="210.0566037735849" y="565.2075471698113" type="curve"/>
      <point x="35.056603773584904" y="472.20754716981133" type="line" smooth="yes"/>
      <point x="8.075471698113207" y="458.00943396226415"/>
      <point x="-11.122641509433961" y="460.00943396226415"/>
      <point x="-38.22641509433962" y="446.10377358490564" type="curve" smooth="yes"/>
      <point x="-163.37735849056605" y="381.7358490566038" type="line" smooth="yes"/>
      <point x="-171.37735849056605" y="377.7358490566038"/>
      <point x="-171.37735849056605" y="373.7358490566038"/>
      <point x="-171.37735849056605" y="362.7358490566038" type="curve" smooth="yes"/>
      <point x="-171.37735849056605" y="308.6320754716981"/>
      <point x="-171.37735849056605" y="296.6981132075472"/>
      <point x="-171.37735849056605" y="279.3301886792453" type="curve"/>
      <point x="-43.179245283018865" y="345.8679245283019" type="line" smooth="yes"/>
      <point x="-11.415094339622641" y="362.60377358490564"/>
      <point x="8.367924528301886" y="357.77358490566036"/>
      <point x="35.764150943396224" y="372.6792452830189" type="curve" smooth="yes"/>
      <point x="201.0566037735849" y="459.97169811320754" type="line" smooth="yes"/>
      <point x="208.0566037735849" y="463.97169811320754"/>
      <point x="210.0566037735849" y="467.97169811320754"/>
      <point x="210.0566037735849" y="477.97169811320754" type="curve" smooth="yes"/>
      <point x="210.0566037735849" y="526.9528301886793"/>
      <point x="210.0566037735849" y="551.2547169811321"/>
    </contour>
  </outline>
</glyph>
